# xmcd
#
# Track frame offsets:
#	150
#	17849
#	32348
#	53589
#	61436
#	74716
#	96940
#	109284
#	119825
#	130371
#
# Disc length: 1851 seconds
#
# Revision: 0
# Processed by: cddbd v1.4PL0 Copyright (c) Steve Scherf et al.
# Submitted via: audiograbber 1.81.02
#
DISCID=9407390a
DTITLE=Keltieg - Búrka
DYEAR=1900
DGENRE=
TTITLE0=Tri Martolod
TTITLE1=La Jument de Michao
TTITLE2=Pelot d'Hennebont
TTITLE3=John Kanaka
TTITLE4=Le Grand Coureur
TTITLE5=Ye Jacobites
TTITLE6=The Star of the County Down
TTITLE7=Drunken Sailor
TTITLE8=The Foggy Dew
TTITLE9=Chanson a Boire
EXTD=
EXTT0=
EXTT1=
EXTT2=
EXTT3=
EXTT4=
EXTT5=
EXTT6=
EXTT7=
EXTT8=
EXTT9=
PLAYORDER=
